<svg width="64" height="64" viewBox="0 0 64 64" fill="none" xmlns="http://www.w3.org/2000/svg">
  <rect width="64" height="64" rx="18" fill="#2E241D"/>
  <circle cx="32" cy="32" r="21" fill="#A86F45"/>
  <path d="M22 39.5V24.5H27.5C30.9 24.5 33.2 26.1 33.2 29C33.2 31 32.1 32.4 30.3 33C32.6 33.5 34 35.1 34 37.4C34 40.8 31.4 42.5 27.6 42.5H22ZM25.3 30.9H27.3C29 30.9 29.9 30.2 29.9 28.9C29.9 27.6 29 26.9 27.3 26.9H25.3V30.9ZM25.3 40.1H27.5C29.6 40.1 30.7 39.3 30.7 37.7C30.7 36.1 29.6 35.3 27.5 35.3H25.3V40.1Z" fill="#FFFaf4"/>
  <path d="M38.2 24.5H41.5L35.9 42.5H32.6L38.2 24.5Z" fill="#FFFaf4"/>
</svg>
